HIERARCHY
ROOT root
{
	OFFSET	0	13.1	24.9
	CHANNELS 6  Xposition Yposition Zposition Xrotation Yrotation Zrotation
	JOINT spine_1
	{
		OFFSET	0	9.99999	0
		CHANNELS 3  Xrotation Yrotation Zrotation
		JOINT spine_2
		{
			OFFSET	0	112	-10
			CHANNELS 3  Xrotation Yrotation Zrotation
			JOINT spine_3
			{
				OFFSET	0	206.5	19.3
				CHANNELS 3  Xrotation Yrotation Zrotation
				JOINT spine_4
				{
					OFFSET	0	110.4	14.6
					CHANNELS 3  Xrotation Yrotation Zrotation
					JOINT neck_1
					{
						OFFSET	0	71.8	-50.3
						CHANNELS 3  Xrotation Yrotation Zrotation
						JOINT neck_2
						{
							OFFSET	0	86.2	-25.8
							CHANNELS 3  Xrotation Yrotation Zrotation
							JOINT head_ee
							{
								OFFSET	0	179.8	-8.7
								CHANNELS 3  Xrotation Yrotation Zrotation
								End Site
								{
									OFFSET	1	0	0
								}
							}
						}
					}
					JOINT left_clavicle
					{
						OFFSET	-43.2	22.4	-70.8
						CHANNELS 3  Xrotation Yrotation Zrotation
						JOINT left_shoulder
						{
							OFFSET	-93.9	-5.79999	48.7
							CHANNELS 3  Xrotation Yrotation Zrotation
							JOINT left_elbow
							{
								OFFSET	-291.4	-30.8	15.2
								CHANNELS 3  Xrotation Yrotation Zrotation
								JOINT left_lowarm_twist
								{
									OFFSET	-110.7	-3.89999	13.6
									CHANNELS 3  Xrotation Yrotation Zrotation
									JOINT left_hand
									{
										OFFSET	-110.7	-3.89999	13.6
										CHANNELS 3  Xrotation Yrotation Zrotation
										JOINT left_ee
										{
											OFFSET	-80.8	-5.10001	12.1
											CHANNELS 3  Xrotation Yrotation Zrotation
											End Site
											{
												OFFSET	1	0	0
											}
										}
									}
								}
							}
						}
					}
					JOINT right_clavicle
					{
						OFFSET	43.2	22.4	-70.8
						CHANNELS 3  Xrotation Yrotation Zrotation
						JOINT right_shoulder
						{
							OFFSET	93.9	-5.79999	48.7
							CHANNELS 3  Xrotation Yrotation Zrotation
							JOINT right_elbow
							{
								OFFSET	291.4	-30.8	15.2
								CHANNELS 3  Xrotation Yrotation Zrotation
								JOINT right_lowarm_twist
								{
									OFFSET	110.7	-3.89999	13.6
									CHANNELS 3  Xrotation Yrotation Zrotation
									JOINT right_hand
									{
										OFFSET	110.7	-3.89999	13.6
										CHANNELS 3  Xrotation Yrotation Zrotation
										JOINT right_ee
										{
											OFFSET	80.8	-5.10001	12.1
											CHANNELS 3  Xrotation Yrotation Zrotation
											End Site
											{
												OFFSET	1	0	0
											}
										}
									}
								}
							}
						}
					}
				}
			}
		}
	}
	JOINT left_hip
	{
		OFFSET	-82.8	-127.5	0.300001
		CHANNELS 3  Xrotation Yrotation Zrotation
		JOINT left_knee
		{
			OFFSET	-28.2	-396.7	2.2
			CHANNELS 3  Xrotation Yrotation Zrotation
			JOINT left_ankle
			{
				OFFSET	-11.7	-411.3	35.4
				CHANNELS 3  Xrotation Yrotation Zrotation
				JOINT left_toes
				{
					OFFSET	0	-60	-88.6
					CHANNELS 3  Xrotation Yrotation Zrotation
					JOINT left_foot_ee
					{
						OFFSET	-22.5	-16.5	-42.2
						CHANNELS 3  Xrotation Yrotation Zrotation
						End Site
						{
							OFFSET	1	0	0
						}
					}
				}
			}
		}
	}
	JOINT right_hip
	{
		OFFSET	82.8	-127.5	0.300001
		CHANNELS 3  Xrotation Yrotation Zrotation
		JOINT right_knee
		{
			OFFSET	28.2	-396.7	2.2
			CHANNELS 3  Xrotation Yrotation Zrotation
			JOINT right_ankle
			{
				OFFSET	11.7	-411.3	35.4
				CHANNELS 3  Xrotation Yrotation Zrotation
				JOINT right_toes
				{
					OFFSET	0	-60	-88.6
					CHANNELS 3  Xrotation Yrotation Zrotation
					JOINT right_foot_ee
					{
						OFFSET	22.5	-16.5	-42.2
						CHANNELS 3  Xrotation Yrotation Zrotation
						End Site
						{
							OFFSET	1	0	0
						}
					}
				}
			}
		}
	}
}
MOTION
Frames: 6
Frame Time: 0.02
3047.9 735.899 -704.202 153.421 -73.6952 152.899 -2.12977 0.493286 1.12556 -2.12917 0.420669 1.15466 -2.11969 0.123502 1.22268 -2.12163 0.315037 1.18784 -26.1387 19.6094 2.7557 -29.582 36.5039 14.3215 -0.0 0.0 -0.0 -0.670617 14.7151 0.65327 -20.3 -27.9845 72.3036 0.510856 -14.2015 0.0636377 -14.1452 -0.707272 1.66003 1.25671 1.69816 9.10666 -0.0 0.0 -0.0 6.29131 16.4729 -11.5063 8.31386 38.004 -59.831 1.23584 31.4736 -0.348248 28.6303 -0.106653 3.61793 7.61849 -9.87624 -71.2242 0.0 0.0 0.0 0.443236 5.22608 -3.40297 -34.3337 -0.146172 5.18907 27.1071 8.18824 -3.5727 -40.0944 0.0 0.0 -0.0 0.0 -0.0 9.3979 16.075 -7.57601 -20.8956 -0.283917 -3.17629 36.5508 -22.6204 4.75852 6.51562 -0.0 -0.0 0.0 0.0 0.0 
3058.27 736.649 -703.91 157.349 -73.8644 157.048 -2.14939 0.504544 1.28392 -2.14857 0.42183 1.31341 -2.13763 0.0851197 1.37685 -2.14015 0.30148 1.34614 -25.7895 19.7384 3.04995 -29.1867 36.639 14.5284 -0.0 0.0 -0.0 -0.758928 15.7722 0.653169 -20.8173 -27.1605 71.5224 0.565232 -15.6424 0.0776409 -13.7128 -0.679661 1.61207 1.52309 3.26963 11.5236 -0.0 0.0 -0.0 6.76411 15.8709 -12.5678 8.07976 36.5472 -59.0183 1.41325 34.9932 -0.445525 27.7098 -0.131442 3.50296 7.67482 -10.317 -72.891 0.0 0.0 0.0 2.26124 4.09057 -3.63782 -33.631 -0.11205 5.08666 32.5429 7.21371 -4.15491 -40.1121 0.0 0.0 -0.0 0.0 -0.0 8.36153 16.8587 -8.10585 -14.9434 -0.321588 -2.2642 28.9658 -25.2319 3.99239 3.19638 -0.0 -0.0 0.0 0.0 0.0 
3069.64 739.072 -702.968 158.408 -73.2481 158.036 -2.15955 0.524678 1.36557 -2.15862 0.436728 1.39619 -2.14655 0.0789351 1.46075 -2.14939 0.308619 1.42997 -24.5533 19.8833 3.3651 -27.7277 36.787 14.3795 -0.0 0.0 -0.0 -0.867607 17.314 0.692374 -20.6922 -26.8642 71.1068 0.593094 -16.373 0.0853244 -13.7357 -0.681114 1.61462 1.74597 4.95745 13.6812 -0.0 0.0 -0.0 6.98898 15.6767 -13.0663 7.46253 35.5751 -58.9931 1.5613 37.7165 -0.53331 26.3425 -0.164843 3.3315 7.7007 -9.7496 -73.0503 0.0 0.0 0.0 5.22772 7.19601 -4.10125 -33.3335 -0.0979836 5.04319 34.1021 9.31285 -4.31905 -40.1303 0.0 0.0 -0.0 0.0 -0.0 5.6069 17.8209 -7.68911 -10.015 -0.281033 -1.50933 25.4957 -27.1333 3.61645 1.13676 -0.0 -0.0 0.0 0.0 0.0 
3076.51 739.914 -700.488 156.776 -74.9795 156.169 -2.05698 0.318913 1.38972 -2.05593 0.229844 1.40719 -2.04902 -0.121921 1.42062 -2.05182 0.103946 1.42204 -24.2444 19.7132 3.86783 -27.2313 36.2491 14.5539 -0.0 0.0 -0.0 -0.855098 17.8444 0.78402 -20.1568 -26.5901 70.5198 0.617926 -17.0196 0.0924586 -13.7014 -0.678938 1.6108 2.02754 5.84337 15.9291 -0.0 0.0 -0.0 7.12775 15.5132 -13.3766 8.31297 34.718 -58.8014 1.67236 39.6365 -0.602726 25.4547 -0.184334 3.21977 7.69286 -9.06583 -72.2719 0.0 0.0 0.0 7.79834 10.1653 -4.81117 -28.7983 0.0882153 4.3723 34.0419 11.301 -4.32508 -40.049 0.0 0.0 -0.0 0.0 -0.0 4.22018 18.7509 -7.80089 -7.71872 -0.240001 -1.15939 22.0822 -27.5542 3.18894 -0.470394 0.0 0.0 0.0 0.0 0.0 
3085.15 739.569 -703.229 154.366 -76.4897 154.134 -2.16852 -0.0665825 1.11523 -2.16784 -0.137408 1.10873 -2.16997 -0.407106 1.04041 -2.1714 -0.237695 1.09164 -23.4705 19.8291 3.59307 -26.3801 36.5655 14.0702 -0.0 0.0 -0.0 -0.641286 18.7968 1.23471 -19.446 -26.7712 70.3136 0.651992 -17.8994 0.10268 -13.4995 -0.666176 1.58834 2.12599 7.01495 17.0322 -0.0 0.0 -0.0 7.03693 14.8302 -13.2222 7.72889 34.0498 -58.1833 1.76842 41.2154 -0.665024 24.8583 -0.196454 3.14454 7.76356 -8.20533 -73.2033 0.0 0.0 0.0 9.01288 10.8349 -5.1076 -26.1102 0.173295 3.96857 33.7316 12.4538 -4.30311 -39.9785 0.0 0.0 -0.0 0.0 -0.0 3.47612 19.0986 -8.08671 -7.15018 -0.227678 -1.07301 19.6655 -26.914 2.85684 -2.04587 0.0 0.0 0.0 0.0 0.0 
3096.61 740.239 -703.001 152.394 -79.0864 152.352 -2.05259 -0.427949 1.01401 -2.05216 -0.491602 0.984724 -2.0606 -0.718112 0.834076 -2.0611 -0.577379 0.937013 -22.9008 19.8788 3.5863 -25.7155 36.6445 13.8548 -0.0 0.0 -0.0 -0.551774 19.0812 1.40535 -18.4183 -26.6493 70.2176 0.68138 -18.6514 0.111896 -13.097 -0.640966 1.54342 2.28368 7.242 18.1958 -0.0 0.0 -0.0 6.85461 13.591 -12.9023 7.84371 33.3247 -58.277 1.86072 42.6639 -0.726715 24.7693 -0.198194 3.13332 7.79787 -7.5379 -73.4053 0.0 0.0 0.0 9.28482 10.4334 -4.91761 -21.9639 0.267138 3.33934 31.1668 14.3954 -4.05459 -40.2312 0.0 0.0 -0.0 0.0 -0.0 3.26136 19.4771 -8.18585 -6.80212 -0.21971 -1.02019 17.845 -27.8534 2.62667 -3.29366 0.0 0.0 0.0 0.0 0.0 
